<svg data-v-fde0c5aa="" xmlns="http://www.w3.org/2000/svg" viewBox="0 0 300 300" class="iconLeft"><!----><defs data-v-fde0c5aa=""><!----></defs><rect data-v-fde0c5aa="" fill="#ECE9F4" x="0" y="0" width="300px" height="300px" class="logo-background-square"></rect><defs data-v-fde0c5aa=""><!----></defs><g data-v-fde0c5aa="" id="63ab36d8-4323-491e-b841-a850e6b03bcd" fill="#282335" transform="matrix(1.9071418420668595,0,0,1.9071418420668595,153.09671784620625,128.37301076525702)"><path d="M6.52 9.47L6.52 9.47L6.52 9.47Q6.40 9.69 6.18 9.88L6.18 9.88L6.18 9.88Q5.96 10.07 5.78 10.11L5.78 10.11L5.78 10.11Q5.60 10.15 5.56 10.04L5.56 10.04L5.56 10.04Q5.32 9.39 4.79 8.94L4.79 8.94L4.79 8.94Q4.27 8.48 3.70 8.40L3.70 8.40L3.70 8.40Q3.12 8.32 2.80 8.50L2.80 8.50L2.80 8.50Q2.52 9.09 2.95 9.74L2.95 9.74L2.95 9.74Q3.33 10.32 4.47 10.77L4.47 10.77L4.47 10.77Q5.24 11.07 5.49 11.21L5.49 11.21L5.49 11.21Q6.61 11.90 6.58 12.98L6.58 12.98L6.58 12.98Q6.55 13.83 5.77 14.62L5.77 14.62L5.77 14.62Q4.34 16.03 2.53 15.15L2.53 15.15L2.53 15.15Q1.51 14.64 0.85 13.59L0.85 13.59L0.85 13.59Q0.80 13.50 0.90 13.29L0.90 13.29L0.90 13.29Q1.01 13.08 1.22 12.88L1.22 12.88L1.22 12.88Q1.43 12.68 1.62 12.61L1.62 12.61L1.62 12.61Q1.82 12.54 1.88 12.64L1.88 12.64L1.88 12.64Q2.63 13.83 3.81 14.25L3.81 14.25L3.81 14.25Q4.56 14.52 5.17 14.32L5.17 14.32L5.17 14.32Q5.36 14.25 5.40 14.20L5.40 14.20L5.40 14.20Q5.59 13.89 5.47 13.40L5.47 13.40L5.47 13.40Q5.28 12.50 3.92 11.96L3.92 11.96L3.92 11.96Q3.86 11.93 3.60 11.83L3.60 11.83L3.60 11.83Q2.84 11.54 2.59 11.34L2.59 11.34L2.59 11.34Q1.32 10.42 1.75 9.13L1.75 9.13L1.75 9.13Q1.92 8.61 2.31 8.20L2.31 8.20L2.31 8.20Q3.30 7.17 4.47 7.34L4.47 7.34L4.47 7.34Q5.19 7.43 5.77 7.93L5.77 7.93L5.77 7.93Q6.34 8.43 6.59 9.14L6.59 9.14L6.59 9.14Q6.64 9.25 6.52 9.47ZM14.08 13.96L14.08 13.96L14.08 13.96Q14.25 13.93 14.28 14.06L14.28 14.06L14.28 14.06Q14.31 14.20 14.16 14.42L14.16 14.42L14.16 14.42Q14.01 14.64 13.66 14.92L13.66 14.92L13.66 14.92Q13.31 15.20 12.92 15.36L12.92 15.36L12.92 15.36Q12.15 15.67 11.97 15.08L11.97 15.08L11.97 15.08Q11.89 14.84 11.90 14.20L11.90 14.20L11.90 14.20Q11.17 15.08 10.43 15.34L10.43 15.34L10.43 15.34Q9.69 15.61 9.04 15.43L9.04 15.43L9.04 15.43Q7.04 14.87 7.84 10.81L7.84 10.81L7.84 10.81Q8.11 9.46 8.78 8.60L8.78 8.60L8.78 8.60Q9.93 7.11 11.59 7.34L11.59 7.34L11.59 7.34Q12.29 7.42 12.68 7.85L12.68 7.85L12.68 7.85Q13.01 7.42 13.36 7.34L13.36 7.34L13.36 7.34Q13.47 7.31 13.53 7.36L13.53 7.36L13.53 7.36Q13.59 7.41 13.58 7.52L13.58 7.52L13.58 7.52Q12.77 13.44 13.01 14.18L13.01 14.18L13.01 14.18Q13.12 14.52 13.37 14.39L13.37 14.39L13.37 14.39Q13.48 14.34 13.69 14.16L13.69 14.16L13.69 14.16Q13.90 13.99 14.08 13.96ZM11.97 12.80L11.97 12.80L11.97 12.80Q12.07 11.68 12.11 11.37L12.11 11.37L12.11 11.37Q12.47 8.62 10.75 8.40L10.75 8.40L10.75 8.40Q10.33 8.34 10.02 8.41L10.02 8.41L10.02 8.41Q9.60 8.50 9.45 8.68L9.45 8.68L9.45 8.68Q9.10 9.13 8.88 10.28L8.88 10.28L8.88 10.28Q8.65 11.42 8.68 12.31L8.68 12.31L8.68 12.31Q8.76 14.04 9.91 14.36L9.91 14.36L9.91 14.36Q10.79 14.62 11.27 14.04L11.27 14.04L11.27 14.04Q11.62 13.62 11.97 12.80ZM20.22 5.94L20.22 5.94L20.22 5.94Q20.13 6.15 19.92 6.35L19.92 6.35L19.92 6.35Q19.71 6.55 19.51 6.63L19.51 6.63L19.51 6.63Q19.31 6.71 19.24 6.62L19.24 6.62L19.24 6.62Q18.70 5.99 18.21 5.69L18.21 5.69L18.21 5.69Q17.72 5.39 17.46 5.45L17.46 5.45L17.46 5.45Q17.33 5.87 17.28 6.85L17.28 6.85L17.18 7.90L17.18 7.90Q17.98 7.90 18.77 7.90L18.77 7.90L18.77 7.90Q18.98 7.90 18.89 8.16L18.89 8.16L18.89 8.16Q18.77 8.51 18.46 8.74L18.46 8.74L18.46 8.74Q18.14 8.96 17.99 8.96L17.99 8.96L17.99 8.96Q17.53 8.96 17.08 8.96L17.08 8.96L16.55 14.55L16.55 14.55Q16.53 14.70 16.37 14.93L16.37 14.93L16.37 14.93Q16.20 15.16 16.02 15.28L16.02 15.28L16.02 15.28Q15.83 15.40 15.72 15.43L15.72 15.43L15.72 15.43Q15.47 15.50 15.48 15.27L15.48 15.27L16.09 8.96L16.09 8.96Q15.47 8.96 14.85 8.96L14.85 8.96L14.85 8.96Q14.64 8.96 14.74 8.69L14.74 8.69L14.74 8.69Q14.85 8.34 15.17 8.12L15.17 8.12L15.17 8.12Q15.48 7.90 15.64 7.90L15.64 7.90L16.18 7.90L16.21 7.57L16.21 7.57Q16.21 7.53 16.23 7.32L16.23 7.32L16.23 7.32Q16.24 7.11 16.24 7.07L16.24 7.07L16.24 7.07Q16.24 7.03 16.25 6.85L16.25 6.85L16.25 6.85Q16.27 6.68 16.27 6.63L16.27 6.63L16.27 6.63Q16.28 6.58 16.30 6.44L16.30 6.44L16.30 6.44Q16.32 6.30 16.34 6.24L16.34 6.24L16.34 6.24Q16.35 6.19 16.38 6.08L16.38 6.08L16.38 6.08Q16.41 5.96 16.45 5.89L16.45 5.89L16.45 5.89Q16.79 5.15 17.33 4.78L17.33 4.78L17.33 4.78Q17.88 4.41 18.28 4.37L18.28 4.37L18.28 4.37Q19.10 4.30 20.24 5.64L20.24 5.64L20.24 5.64Q20.31 5.73 20.22 5.94ZM26.04 11.73L21.98 11.63L21.98 11.63Q21.92 14.22 24.23 14.38L24.23 14.38L24.23 14.38Q24.72 14.42 25.12 14.35L25.12 14.35L25.12 14.35Q25.62 14.27 25.68 14.15L25.68 14.15L25.68 14.15Q25.79 13.94 26.01 13.75L26.01 13.75L26.01 13.75Q26.22 13.55 26.40 13.49L26.40 13.49L26.40 13.49Q26.59 13.43 26.66 13.54L26.66 13.54L26.66 13.54Q26.75 13.72 26.39 14.20L26.39 14.20L26.39 14.20Q26.03 14.67 25.64 14.95L25.64 14.95L25.64 14.95Q25.26 15.22 24.89 15.32L24.89 15.32L24.89 15.32Q24.08 15.54 23.42 15.44L23.42 15.44L23.42 15.44Q20.66 15.26 20.94 11.96L20.94 11.96L20.94 11.96Q21.03 10.93 21.25 10.18L21.25 10.18L21.25 10.18Q21.48 9.44 21.97 8.78L21.97 8.78L21.97 8.78Q23.09 7.27 24.75 7.34L24.75 7.34L24.75 7.34Q27.40 7.43 26.96 10.85L26.96 10.85L26.96 10.85Q26.84 11.41 26.40 11.65L26.40 11.65L26.40 11.65Q26.24 11.75 26.04 11.73L26.04 11.73ZM22.08 10.58L22.08 10.58L22.08 10.58Q22.18 10.56 22.23 10.56L22.23 10.56L25.96 10.64L25.96 10.64Q25.91 8.47 23.95 8.40L23.95 8.40L23.95 8.40Q23.00 8.36 22.68 8.81L22.68 8.81L22.68 8.81Q22.26 9.37 22.08 10.58ZM33.86 9.47L33.86 9.47L33.86 9.47Q33.74 9.69 33.52 9.88L33.52 9.88L33.52 9.88Q33.31 10.07 33.12 10.11L33.12 10.11L33.12 10.11Q32.94 10.15 32.90 10.04L32.90 10.04L32.90 10.04Q32.66 9.39 32.14 8.94L32.14 8.94L32.14 8.94Q31.61 8.48 31.04 8.40L31.04 8.40L31.04 8.40Q30.46 8.32 30.14 8.50L30.14 8.50L30.14 8.50Q29.86 9.09 30.30 9.74L30.30 9.74L30.30 9.74Q30.67 10.32 31.81 10.77L31.81 10.77L31.81 10.77Q32.58 11.07 32.83 11.21L32.83 11.21L32.83 11.21Q33.95 11.90 33.92 12.98L33.92 12.98L33.92 12.98Q33.89 13.83 33.11 14.62L33.11 14.62L33.11 14.62Q31.68 16.03 29.88 15.15L29.88 15.15L29.88 15.15Q28.85 14.64 28.20 13.59L28.20 13.59L28.20 13.59Q28.14 13.50 28.25 13.29L28.25 13.29L28.25 13.29Q28.35 13.08 28.56 12.88L28.56 12.88L28.56 12.88Q28.77 12.68 28.97 12.61L28.97 12.61L28.97 12.61Q29.16 12.54 29.22 12.64L29.22 12.64L29.22 12.64Q29.97 13.83 31.15 14.25L31.15 14.25L31.15 14.25Q31.91 14.52 32.51 14.32L32.51 14.32L32.51 14.32Q32.70 14.25 32.75 14.20L32.75 14.20L32.75 14.20Q32.93 13.89 32.82 13.40L32.82 13.40L32.82 13.40Q32.62 12.50 31.26 11.96L31.26 11.96L31.26 11.96Q31.21 11.93 30.94 11.83L30.94 11.83L30.94 11.83Q30.18 11.54 29.93 11.34L29.93 11.34L29.93 11.34Q28.66 10.42 29.09 9.13L29.09 9.13L29.09 9.13Q29.26 8.61 29.65 8.20L29.65 8.20L29.65 8.20Q30.65 7.17 31.81 7.34L31.81 7.34L31.81 7.34Q32.54 7.43 33.11 7.93L33.11 7.93L33.11 7.93Q33.68 8.43 33.94 9.14L33.94 9.14L33.94 9.14Q33.98 9.25 33.86 9.47ZM36.19 4.02L36.19 4.02Q36.20 3.85 36.37 3.63L36.37 3.63L36.37 3.63Q36.54 3.40 36.72 3.28L36.72 3.28L36.72 3.28Q36.90 3.16 37.02 3.14L37.02 3.14L37.02 3.14Q37.27 3.07 37.25 3.29L37.25 3.29L36.78 8.54L36.78 8.54Q37.21 8.02 37.79 7.68L37.79 7.68L37.79 7.68Q38.37 7.34 38.96 7.34L38.96 7.34L38.96 7.34Q41.36 7.31 41.01 10.63L41.01 10.63L40.67 14.55L40.67 14.55Q40.66 14.70 40.49 14.92L40.49 14.92L40.49 14.92Q40.32 15.15 40.14 15.27L40.14 15.27L40.14 15.27Q39.96 15.40 39.84 15.43L39.84 15.43L39.84 15.43Q39.59 15.50 39.61 15.27L39.61 15.27L39.94 11.35L39.94 11.35Q40.26 8.39 38.21 8.40L38.21 8.40L38.21 8.40Q37.80 8.40 37.60 8.51L37.60 8.51L37.60 8.51Q37.11 8.79 36.69 10.05L36.69 10.05L36.69 10.05Q36.67 10.14 36.61 10.23L36.61 10.23L36.22 14.55L36.22 14.55Q36.20 14.70 36.04 14.93L36.04 14.93L36.04 14.93Q35.87 15.16 35.69 15.28L35.69 15.28L35.69 15.28Q35.50 15.40 35.39 15.43L35.39 15.43L35.39 15.43Q35.14 15.50 35.15 15.27L35.15 15.27L36.19 4.02ZM46.47 7.34L46.47 7.34L46.47 7.34Q49.04 7.56 48.54 11.55L48.54 11.55L48.54 11.55Q48.33 13.15 47.60 14.11L47.60 14.11L47.60 14.11Q46.48 15.60 44.81 15.44L44.81 15.44L44.81 15.44Q41.99 15.19 42.42 11.80L42.42 11.80L42.42 11.80Q42.55 10.84 42.79 10.11L42.79 10.11L42.79 10.11Q43.04 9.38 43.53 8.75L43.53 8.75L43.53 8.75Q44.72 7.18 46.47 7.34ZM45.65 8.40L45.65 8.40L45.65 8.40Q44.59 8.30 44.21 8.81L44.21 8.81L44.21 8.81Q44.00 9.07 43.79 9.68L43.79 9.68L43.79 9.68Q43.58 10.29 43.48 11.10L43.48 11.10L43.48 11.10Q43.09 14.15 45.63 14.38L45.63 14.38L45.63 14.38Q46.59 14.46 46.90 14.06L46.90 14.06L46.90 14.06Q47.05 13.85 47.22 13.36L47.22 13.36L47.22 13.36Q47.39 12.88 47.47 12.25L47.47 12.25L47.47 12.25Q47.95 8.60 45.65 8.40ZM50.33 8.20L50.33 8.20Q50.34 8.04 50.51 7.82L50.51 7.82L50.51 7.82Q50.68 7.60 50.86 7.48L50.86 7.48L50.86 7.48Q51.04 7.35 51.16 7.32L51.16 7.32L51.16 7.32Q51.41 7.25 51.39 7.48L51.39 7.48L51.34 8.12L51.34 8.12Q52.18 7.32 53.33 7.34L53.33 7.34L53.33 7.34Q56.80 7.36 55.85 11.56L55.85 11.56L55.85 11.56Q55.48 13.16 54.91 13.96L54.91 13.96L54.91 13.96Q54.33 14.76 53.73 15.10L53.73 15.10L53.73 15.10Q53.13 15.44 52.60 15.44L52.60 15.44L52.60 15.44Q51.41 15.44 50.76 14.63L50.76 14.63L50.76 14.63Q50.76 14.63 50.41 18.66L50.41 18.66L50.41 18.66Q50.40 18.82 50.23 19.04L50.23 19.04L50.23 19.04Q50.06 19.26 49.88 19.39L49.88 19.39L49.88 19.39Q49.70 19.52 49.59 19.54L49.59 19.54L49.59 19.54Q49.34 19.61 49.35 19.39L49.35 19.39L50.33 8.20ZM51.10 10.79L51.06 11.38L51.06 11.38Q51.06 11.40 51.06 11.42L51.06 11.42L51.06 11.42Q51.30 14.38 53.38 14.38L53.38 14.38L53.38 14.38Q53.83 14.38 53.97 14.22L53.97 14.22L53.97 14.22Q54.46 13.72 54.84 12.00L54.84 12.00L54.84 12.00Q55.23 10.29 54.67 9.35L54.67 9.35L54.67 9.35Q54.11 8.41 52.54 8.40L52.54 8.40L52.54 8.40Q51.80 8.40 51.63 8.64L51.63 8.64L51.63 8.64Q51.45 8.88 51.30 9.41L51.30 9.41L51.30 9.41Q51.16 9.95 51.14 10.34L51.14 10.34L51.14 10.34Q51.13 10.72 51.10 10.79L51.10 10.79Z"></path></g><defs data-v-fde0c5aa=""><linearGradient data-v-fde0c5aa="" gradientTransform="rotate(25)" id="e06a855a-e610-423c-a33d-a0f5c4b624e3" x1="0%" y1="0%" x2="100%" y2="0%"><stop data-v-fde0c5aa="" offset="0%" stop-color="#422F75" stop-opacity="1"></stop><stop data-v-fde0c5aa="" offset="100%" stop-color="#C0B3EC" stop-opacity="1"></stop></linearGradient></defs><g data-v-fde0c5aa="" id="3e28b9ca-5f9d-4984-b257-4ac57c25614a" stroke="url(#e06a855a-e610-423c-a33d-a0f5c4b624e3)" fill="none" transform="matrix(0.3482397355834873,0,0,0.3482397355834873,106.86202923202956,139.03044832912013)"><path d="M-192 0H-7v99h-185zM0-36h100v30H0z"></path><text transform="translate(66 -19.5)" font-family="'Helvetica'" font-size="2.4">http://thenounproject.com</text><text transform="translate(7.166 -24.5)"><tspan x="0" y="0" font-family="'Helvetica-Bold'" font-size="6.158">The Noun Project</tspan><tspan x="1.12" y="4.8" font-family="'Helvetica-Bold'" font-size="4">Icon Template</tspan></text><text transform="translate(-178.5 10.5)" font-family="'Helvetica-Bold'" font-size="6.158">Reminders</text><path stroke-miterlimit="10" d="M8-14.5h10M-179 16.5h17"></path><path d="M-170.802 31.318h8.721v8.642h-8.721z"></path><path d="M-164.455 42.312h4.747v-4.703h-4.747v4.703zm5.189.437h-5.63V37.17h5.63v5.579zm-6.955 1.313h8.279v-8.203h-8.279v8.203zm8.721.438h-9.163v-9.079h9.163V44.5z"></path><path d="M-166.149 44.133l-.143-.142 8.279-8.204.142.142z"></path><path d="M-179 58h35v32.5h-35z"></path><text transform="translate(-179 60.157)"><tspan x="0" y="0" font-family="'Helvetica-Bold'" font-size="3">Strokes</tspan><tspan x="0" y="5" font-family="'Helvetica'" font-size="2.4">Try to keep strokes at 4px</tspan><tspan x="0" y="10" font-family="'Helvetica'" font-size="2.4">Minimum stroke weight is 2px</tspan><tspan x="0" y="14.5" font-family="'Helvetica'" font-size="2.4">For thicker strokes use even </tspan><tspan x="0" y="17.5" font-family="'Helvetica'" font-size="2.4">numbers: 6px, 8px etc.</tspan><tspan x="0" y="22" font-family="'Helvetica-Bold'" font-size="2.4">Remember to expand strokes </tspan><tspan x="0" y="25" font-family="'Helvetica-Bold'" font-size="2.4">before saving as an SVG</tspan></text><path d="M-136.5 58h35v32.5h-35z"></path><text transform="translate(-136.5 60.157)"><tspan x="0" y="0" font-family="'Helvetica-Bold'" font-size="3">Size</tspan><tspan x="0" y="5" font-family="'Helvetica'" font-size="2.4">Cannot be wider or taller than </tspan><tspan x="0" y="8.5" font-family="'Helvetica'" font-size="2.4">100px (artboard size)</tspan><tspan x="0" y="13.5" font-family="'Helvetica'" font-size="2.4">Scale your icon to fill as much of </tspan><tspan x="0" y="16.5" font-family="'Helvetica'" font-size="2.4">the artboard as possible</tspan></text><path d="M-94 58h35v32.5h-35z"></path><text transform="translate(-94 60.157)"><tspan x="0" y="0" font-family="'Helvetica-Bold'" font-size="3">Ungroup</tspan><tspan x="0" y="5" font-family="'Helvetica'" font-size="2.4">If your design has more than one </tspan><tspan x="0" y="8" font-family="'Helvetica'" font-size="2.4">shape, make sure to ungroup</tspan></text><path d="M-50 58h35v32.5h-35z"></path><text transform="translate(-50 60.157)"><tspan x="0" y="0" font-family="'Helvetica-Bold'" font-size="3">Save as</tspan><tspan x="0" y="5" font-family="'Helvetica'" font-size="2.4">Save as .SVG and make sure </tspan><tspan x="0" y="8" font-family="'Helvetica'" font-size="2.4">“Use Artboards” is checked</tspan></text><text transform="matrix(1.0074 0 0 1 -125.542 30.593)" font-family="'Helvetica'" font-size="2.573">100px</text><text transform="matrix(1.0074 0 0 1 -41 39)" font-family="'Helvetica-Bold'" font-size="5.146">.SVG</text><path d="M-126.514 34.815h10.261V45h-10.261zM-126.477 31.766h.522v2.337h-.522zM-116.812 31.766h.523v2.337h-.523z"></path><path d="M-127 32.337h11.233v.572H-127zM-83.805 33.844H-73.5V44h-10.305zM-76.809 28.707h3.308v3.261h-3.308z"></path><path stroke="#FFF" stroke-miterlimit="10" d="M-178.5 22.5h30v30h-30zM-136.5 22.5h30v30h-30zM-93.5 22.5h30v30h-30zM-49.5 22.5h30v30h-30z"></path><g><path d="M92.085 23.914H42.56a6.348 6.348 0 0 1-6.346-6.346 6.348 6.348 0 0 1 6.346-6.347h49.525a6.35 6.35 0 0 1 6.35 6.347 6.351 6.351 0 0 1-6.35 6.346zM18.022 25.841H8.346A6.346 6.346 0 0 1 2 19.495v-4.149A6.347 6.347 0 0 1 8.346 9h9.676a6.348 6.348 0 0 1 6.346 6.346v4.149a6.347 6.347 0 0 1-6.346 6.346zM92.085 55.456H42.56a6.348 6.348 0 0 1-6.346-6.345 6.348 6.348 0 0 1 6.346-6.347h49.525a6.351 6.351 0 0 1 6.35 6.347 6.35 6.35 0 0 1-6.35 6.345zM18.022 57.532H8.346A6.347 6.347 0 0 1 2 51.186v-4.149a6.347 6.347 0 0 1 6.346-6.345h9.676a6.347 6.347 0 0 1 6.346 6.345v4.149a6.348 6.348 0 0 1-6.346 6.346z"></path><g><path d="M92.085 87.146H42.56a6.346 6.346 0 0 1 0-12.691h49.525a6.35 6.35 0 0 1 6.35 6.346 6.349 6.349 0 0 1-6.35 6.345zM18.022 89.221H8.346A6.348 6.348 0 0 1 2 82.875v-4.146a6.348 6.348 0 0 1 6.346-6.347h9.676a6.349 6.349 0 0 1 6.346 6.347v4.146a6.348 6.348 0 0 1-6.346 6.346z"></path></g></g></g><!----></svg>